<svg width="26" height="28" viewBox="0 0 26 28" fill="none" xmlns="http://www.w3.org/2000/svg">
<path d="M25.1858 8V3H19.6858M25.1858 8H19.6858M25.1858 8V12.5M1.18579 8V3H7.18579M1.18579 8H7.18579M1.18579 8V12.5M13.6858 8H19.6858M13.6858 8H7.18579M13.6858 8V12.5M13.6858 27H19.6858M13.6858 27H7.18579M13.6858 27V22M19.6858 8V12.5M19.6858 27H23.1858C24.2904 27 25.1858 26.1046 25.1858 25V22M19.6858 27V22M7.18579 8V12.5M7.18579 27H3.18579C2.08122 27 1.18579 26.1046 1.18579 25V22M7.18579 27V22M25.1858 17.5V12.5M25.1858 17.5V22M25.1858 17.5H19.6858M1.18579 17.5V12.5M1.18579 17.5V22M1.18579 17.5H7.18579M1.18579 12.5H7.18579M25.1858 12.5H19.6858M25.1858 22H19.6858M1.18579 22H7.18579M19.6858 5V3M19.6858 3V1M19.6858 3H7.18579M7.18579 3V1M7.18579 3V5M19.6858 12.5V17.5M19.6858 12.5H13.6858M19.6858 17.5V22M19.6858 17.5H13.6858M19.6858 22H13.6858M13.6858 22V17.5M13.6858 22H7.18579M13.6858 17.5V12.5M13.6858 17.5H7.18579M13.6858 12.5H7.18579M7.18579 12.5V17.5M7.18579 17.5V22" stroke="white" stroke-linecap="square"/>
</svg>
