<svg width="20" height="26" viewBox="0 0 20 26" fill="none" xmlns="http://www.w3.org/2000/svg">
<path fill-rule="evenodd" clip-rule="evenodd" d="M16.7539 15.4911C18.1 13.9302 18.9122 11.9081 18.9122 9.69916C18.9122 4.75667 14.8464 0.75 9.83108 0.75C4.81574 0.75 0.75 4.75667 0.75 9.69916C0.75 11.9081 1.56214 13.9302 2.90823 15.4911L9.83108 24.75L16.7539 15.4911Z" fill="#FF473A"/>
<path d="M16.7539 15.4911L16.3954 15.182L16.3847 15.1945L16.3748 15.2077L16.7539 15.4911ZM2.90823 15.4911L3.28735 15.2077L3.27748 15.1945L3.26672 15.182L2.90823 15.4911ZM9.83108 24.75L9.45195 25.0335L9.83108 25.5405L10.2102 25.0335L9.83108 24.75ZM18.4388 9.69916C18.4388 11.7897 17.6707 13.7031 16.3954 15.182L17.1124 15.8003C18.5293 14.1572 19.3855 12.0266 19.3855 9.69916H18.4388ZM9.83108 1.22339C14.5915 1.22339 18.4388 5.02462 18.4388 9.69916H19.3855C19.3855 4.48872 15.1013 0.276615 9.83108 0.276615V1.22339ZM1.22339 9.69916C1.22339 5.02462 5.07063 1.22339 9.83108 1.22339V0.276615C4.56085 0.276615 0.276615 4.48872 0.276615 9.69916H1.22339ZM3.26672 15.182C1.99144 13.7031 1.22339 11.7897 1.22339 9.69916H0.276615C0.276615 12.0266 1.13284 14.1572 2.54973 15.8003L3.26672 15.182ZM10.2102 24.4665L3.28735 15.2077L2.5291 15.7746L9.45195 25.0335L10.2102 24.4665ZM16.3748 15.2077L9.45195 24.4665L10.2102 25.0335L17.1331 15.7746L16.3748 15.2077Z" fill="white"/>
<ellipse cx="9.83115" cy="9.69922" rx="2.47665" ry="2.44067" fill="white"/>
</svg>
