<svg width="25" height="31" viewBox="0 0 25 31" fill="none" xmlns="http://www.w3.org/2000/svg">
<path d="M12.5 8.00003C13.184 8.00003 12.1846 8.00003 12.5 8.00003V8.00003Z" fill="#DADADA"/>
<path d="M12.5 8.00003C11.816 8.00003 12.8154 8.00003 12.5 8.00003V8.00003Z" fill="#DADADA"/>
<path d="M1 19V30H12.5M1 19V8.00003H12.5M1 19H12.5M24 19V8.00003H12.5M24 19V30H12.5M24 19H12.5M12.5 8.00003C13.5 3.50003 16.7449 -0.499964 19.1858 2.00004C21.658 4.53218 15.3753 7.84414 12.5 8.00003ZM12.5 8.00003C12.1846 8.00003 13.184 8.00003 12.5 8.00003ZM12.5 8.00003V19M12.5 8.00003C11.5 3.50003 8.25505 -0.499964 5.81421 2.00004C3.34198 4.53218 9.62471 7.84414 12.5 8.00003ZM12.5 8.00003C12.8154 8.00003 11.816 8.00003 12.5 8.00003ZM12.5 30V19" stroke="white" stroke-linecap="square"/>
</svg>
